<?xml version="1.0" encoding="utf-8"?>
<!-- Generator: Adobe Illustrator 16.0.3, SVG Export Plug-In . SVG Version: 6.00 Build 0)  -->
<!DOCTYPE svg PUBLIC "-//W3C//DTD SVG 1.1//EN" "http://www.w3.org/Graphics/SVG/1.1/DTD/svg11.dtd">
<svg version="1.1" id="Layer_1" xmlns="http://www.w3.org/2000/svg" xmlns:xlink="http://www.w3.org/1999/xlink" x="0px" y="0px"
	 width="100px" height="100px" viewBox="0 0 100 100" enable-background="new 0 0 100 100" xml:space="preserve">
<path fill="#BBFFF2" d="M50,21.302c-14.722,0-26.698,11.977-26.698,26.698c0,14.721,11.977,26.698,26.698,26.698
	c14.721,0,26.698-11.978,26.698-26.698C76.698,33.278,64.721,21.302,50,21.302z M50,71.361c-12.881,0-23.361-10.479-23.361-23.361
	c0-12.881,10.48-23.361,23.361-23.361c12.882,0,23.361,10.48,23.361,23.361C73.361,60.882,62.882,71.361,50,71.361z"/>
<circle fill="#00FFCF" cx="40.42" cy="39.124" r="3.619"/>
<circle fill="#00FFCF" cx="59.578" cy="39.124" r="3.619"/>
<path fill="#00FFCF" d="M67.139,51.813c-0.879-0.265-1.813,0.238-2.076,1.121C65.032,53.032,61.941,62.9,50,62.9
	c-11.863,0-14.938-9.567-15.064-9.976c-0.267-0.88-1.202-1.377-2.074-1.114c-0.884,0.265-1.385,1.194-1.121,2.076
	c0.038,0.125,3.86,12.35,18.259,12.35c14.398,0,18.223-12.225,18.259-12.35C68.521,53.006,68.021,52.075,67.139,51.813z"/>
</svg>
