<?xml version="1.0" encoding="utf-8"?>
<!-- Generator: Adobe Illustrator 16.0.3, SVG Export Plug-In . SVG Version: 6.00 Build 0)  -->
<!DOCTYPE svg PUBLIC "-//W3C//DTD SVG 1.1//EN" "http://www.w3.org/Graphics/SVG/1.1/DTD/svg11.dtd">
<svg version="1.1" id="Layer_1" xmlns="http://www.w3.org/2000/svg" xmlns:xlink="http://www.w3.org/1999/xlink" x="0px" y="0px"
	 width="100px" height="100px" viewBox="0 0 100 100" enable-background="new 0 0 100 100" xml:space="preserve">
<path fill="#00FFCF" d="M64.438,54.077c-3.778,0.403-1.682-2.589-2.595-3.74c-1.486,0.289-2.729,2.417-4.508,0.026
	c-1.373-1.845-3.801-3.324-3.268-5.813c1.169-5.478,3.766-7.417,9.415-7.896c0.25-0.977-1.785-1.038-0.865-2.367
	c1.724-2.476-0.427-3.11-1.903-2.769c-4.098,0.957-6.1-1.735-8.403-4.109c-0.531-0.551-1.066-1.166-1.728-1.501
	c-0.699-0.355-1.484-0.541-1.292,0.879c0.406,3.035-1.435,4.594-3.957,5.65c-1.612,0.679-3.457,1.131-3.84,3.24
	c-0.492,2.708-1.746,2.167-3.706,1.292c-1.603-0.721,0.677-2.162-1.182-2.533c-1.523,1.144-2.509,2.121-2.074,4.912
	c0.439,2.848,2.733,3.34,3.88,5.119c3.223,4.993,6.071,10.326,8.222,15.696c1.839,4.592,4.859,6.564,8.613,8.417
	c2.474,1.21,4.714,2.625,6.221,4.992c0.894,0,1.778,0,2.672,0c0.547-3.102,2.444-5.804,1.699-9.417
	c-0.264-1.271,0.146-3.86,0.858-5.833C67.234,56.823,65.519,53.967,64.438,54.077z"/>
</svg>
