<?xml version="1.0" encoding="utf-8"?>
<!-- Generator: Adobe Illustrator 16.0.3, SVG Export Plug-In . SVG Version: 6.00 Build 0)  -->
<!DOCTYPE svg PUBLIC "-//W3C//DTD SVG 1.1//EN" "http://www.w3.org/Graphics/SVG/1.1/DTD/svg11.dtd">
<svg version="1.1" id="Layer_1" xmlns="http://www.w3.org/2000/svg" xmlns:xlink="http://www.w3.org/1999/xlink" x="0px" y="0px"
	 width="100px" height="100px" viewBox="0 0 100 100" enable-background="new 0 0 100 100" xml:space="preserve">
<path fill="#BBFFF2" d="M77.325,26.499H63.982v-2.583c0-0.711-0.578-1.291-1.291-1.291s-1.291,0.58-1.291,1.291v2.583H48.06
	c-1.899,0-3.443,1.545-3.443,3.443L44.612,50.6c0,1.899,1.544,3.443,3.443,3.443h6.268l-5.496,20.521
	c-0.184,0.688,0.226,1.396,0.913,1.58c0.111,0.028,0.226,0.043,0.334,0.043c0.57,0,1.092-0.381,1.244-0.959l5.68-21.188h4.4v15.016
	c0,0.711,0.578,1.291,1.291,1.291s1.291-0.58,1.291-1.291V54.041h4.401l5.675,21.188c0.156,0.578,0.678,0.959,1.25,0.959
	c0.107,0,0.223-0.015,0.334-0.043c0.687-0.185,1.098-0.893,0.912-1.58l-5.496-20.521h6.269c1.896,0,3.442-1.543,3.442-3.441V29.941
	C80.77,28.043,79.221,26.499,77.325,26.499z M79.047,50.6L79.047,50.6L79.047,50.6c0,0.948-0.771,1.723-1.722,1.723H48.06
	c-0.951,0-1.721-0.773-1.721-1.723l0.001-20.658c0-0.948,0.771-1.721,1.721-1.721h29.265c0.949,0,1.721,0.773,1.721,1.721V50.6z"/>
<g id="SYSPERSON">
	<path fill="#00FFCF" d="M46.51,39.906l5.451,1.817c0.227,0.074,0.455,0.11,0.682,0.11c0.899,0,1.742-0.572,2.043-1.472
		c0.049-0.152,0.039-0.303,0.053-0.456l12.938-5.986c0.214-0.099,0.31-0.357,0.207-0.572c-0.098-0.215-0.354-0.311-0.571-0.208
		L54.645,39c-0.205-0.614-0.658-1.139-1.32-1.361l-6.813-2.271l-1.723-0.574l-1.792-0.597c-0.468-0.167-4.646-1.622-8.493-1.812
		l-0.512,1.024h-0.015l1.45,11.287l-1.721,3.008l-1.722-3.008l1.449-11.287h-0.015l-0.512-1.025c-3.99,0.196-8.347,1.76-8.542,1.83
		c-0.071,0.026-0.117,0.08-0.183,0.112c-0.142,0.067-0.271,0.143-0.394,0.238c-0.105,0.082-0.192,0.167-0.278,0.266
		c-0.094,0.104-0.175,0.213-0.247,0.337c-0.073,0.125-0.126,0.251-0.173,0.389c-0.026,0.076-0.077,0.135-0.095,0.215L19.55,51.266
		c-0.256,1.158,0.473,2.307,1.633,2.566c0.159,0.034,0.315,0.051,0.469,0.051c0.986,0,1.876-0.685,2.101-1.686l3.178-14.296
		c0.222-0.069,0.474-0.143,0.747-0.219V52.37l-1.712,21.298c-0.114,1.421,0.944,2.666,2.367,2.777c0.071,0.007,0.139,0.01,0.21,0.01
		c1.331,0,2.462-1.023,2.57-2.374l1.548-19.249c0.32,0.143,0.672,0.223,1.041,0.223c0.371,0,0.724-0.08,1.042-0.223l1.548,19.249
		c0.108,1.351,1.239,2.374,2.57,2.374c0.071,0,0.14-0.001,0.209-0.01c1.423-0.111,2.481-1.358,2.367-2.777L39.725,52.37V37.684
		c1.094,0.31,1.832,0.573,1.851,0.579c0.009,0.004,0.017,0.002,0.027,0.004c0.009,0.003,0.016,0.01,0.023,0.014l3.156,1.051
		L46.51,39.906z"/>
	<path fill="#00FFCF" d="M33.705,31.923c3.001,0,5.439-3.484,5.439-6.488c0-3.006-2.438-5.442-5.439-5.442
		c-3.006,0-5.444,2.438-5.444,5.442S30.699,31.923,33.705,31.923z"/>
	<path id="SYSPERSONST2" fill="#00FFCF" d="M65.423,42.13l0.892-0.556l-0.873-1.398l-0.89,0.555
		c-0.405-0.436-0.888-0.775-1.413-1.012l0.235-1.02l-1.604-0.371l-0.233,1.023c-0.577-0.022-1.16,0.072-1.716,0.288l-0.56-0.892
		l-1.397,0.873l0.561,0.892c-0.438,0.407-0.779,0.889-1.013,1.416l-1.021-0.236l-0.371,1.605l1.022,0.236
		c-0.021,0.574,0.073,1.157,0.289,1.714l-0.894,0.558l0.875,1.397l0.893-0.558c0.402,0.438,0.886,0.778,1.414,1.01l-0.235,1.022
		l1.604,0.371l0.236-1.021c0.573,0.022,1.156-0.072,1.715-0.288l0.555,0.891l1.396-0.872l-0.555-0.891
		c0.438-0.404,0.775-0.89,1.01-1.413l1.022,0.236l0.368-1.605l-1.022-0.238C65.732,43.268,65.639,42.685,65.423,42.13z
		 M62.939,46.199c-1.385,0.864-3.209,0.443-4.076-0.943c-0.863-1.383-0.442-3.21,0.939-4.075c1.387-0.865,3.215-0.445,4.081,0.94
		C64.748,43.506,64.325,45.334,62.939,46.199z"/>
	<path id="SYSPERSONST1" fill="#00FFCF" d="M74.341,39.512l-0.791,0.269c-0.235-0.412-0.547-0.766-0.911-1.043l0.37-0.749
		l-1.18-0.581l-0.367,0.75c-0.442-0.121-0.914-0.155-1.382-0.089l-0.271-0.794l-1.242,0.422l0.269,0.793
		c-0.411,0.234-0.765,0.547-1.042,0.912l-0.753-0.369l-0.581,1.178l0.753,0.37c-0.122,0.442-0.157,0.911-0.092,1.385l-0.791,0.268
		l0.421,1.244l0.794-0.269c0.233,0.414,0.546,0.766,0.911,1.043l-0.37,0.749l1.179,0.583l0.368-0.749
		c0.443,0.122,0.912,0.155,1.384,0.089l0.269,0.793l1.243-0.421l-0.269-0.792c0.413-0.235,0.767-0.548,1.043-0.914l0.751,0.371
		l0.579-1.177l-0.749-0.372c0.123-0.442,0.155-0.912,0.092-1.381l0.793-0.271L74.341,39.512z M71.301,43.726
		c-1.234,0.418-2.57-0.243-2.988-1.475c-0.418-1.233,0.242-2.574,1.476-2.993c1.233-0.416,2.571,0.246,2.989,1.478
		S72.534,43.307,71.301,43.726z"/>
</g>
</svg>
