<?xml version="1.0" encoding="utf-8"?>
<!-- Generator: Adobe Illustrator 16.0.3, SVG Export Plug-In . SVG Version: 6.00 Build 0)  -->
<!DOCTYPE svg PUBLIC "-//W3C//DTD SVG 1.1//EN" "http://www.w3.org/Graphics/SVG/1.1/DTD/svg11.dtd">
<svg version="1.1" id="Layer_1" xmlns="http://www.w3.org/2000/svg" xmlns:xlink="http://www.w3.org/1999/xlink" x="0px" y="0px"
	 width="100px" height="100px" viewBox="0 0 100 100" enable-background="new 0 0 100 100" xml:space="preserve">
<path fill="#00FFCF" d="M29.575,41.936c2.091,0,3.786-2.424,3.786-4.512c0-2.093-1.694-3.787-3.786-3.787
	c-2.089,0-3.784,1.693-3.784,3.787C25.791,39.511,27.486,41.936,29.575,41.936z"/>
<path fill="#00FFCF" d="M37.677,56.512l-3.91-0.787v-9.783c0.107,0.032,0.204,0.056,0.3,0.086v6.094
	c0,0.565,0.321,1.087,0.827,1.341l2.397,1.198c0.214,0.104,0.446,0.155,0.666,0.155c0.551,0,1.08-0.301,1.341-0.825
	c0.37-0.739,0.07-1.64-0.671-2.009l-1.563-0.78V44.94c0-0.015-0.011-0.027-0.011-0.04c-0.003-0.111-0.039-0.215-0.063-0.322
	c-0.022-0.083-0.032-0.17-0.063-0.245c-0.035-0.089-0.104-0.159-0.156-0.236c-0.057-0.078-0.104-0.166-0.174-0.232
	c-0.057-0.055-0.133-0.092-0.208-0.141c-0.09-0.062-0.174-0.132-0.283-0.174c-0.011-0.003-0.021-0.015-0.034-0.019
	c-0.138-0.048-3.167-1.137-5.944-1.273l-0.353,0.714h-0.011l1.008,7.851l-1.198,2.092l-1.198-2.092l1.011-7.851h-0.012l-0.354-0.714
	c-2.775,0.136-5.806,1.224-5.943,1.273c-0.012,0.004-0.019,0.016-0.03,0.02c-0.109,0.042-0.198,0.11-0.29,0.176
	c-0.07,0.047-0.146,0.083-0.204,0.136c-0.07,0.07-0.115,0.156-0.174,0.238c-0.051,0.077-0.117,0.144-0.153,0.229
	c-0.035,0.079-0.041,0.168-0.067,0.25c-0.024,0.105-0.06,0.209-0.063,0.317c0,0.013-0.007,0.026-0.007,0.039l-0.011,5.436
	c0,0.371,0.137,0.729,0.383,1.004l0.126,0.138c-0.07-0.009-0.134-0.039-0.208-0.039c-0.827,0-1.497,0.67-1.497,1.496v3.941v1.201
	v11.812c0,0.828,0.668,1.501,1.497,1.501h10.188c0.827,0,1.499-0.672,1.499-1.501V59.454l1.538,0.312l0.561,10.262
	c0.05,0.955,0.846,1.699,1.792,1.699c0.033,0,0.067-0.002,0.101-0.004c0.99-0.055,1.749-0.9,1.696-1.893l-0.636-11.65
	C39.074,57.357,38.479,56.674,37.677,56.512z M25.082,46.03c0.097-0.03,0.198-0.056,0.302-0.088v4.204l-0.309-0.343L25.082,46.03z
	 M25.384,54.626v1.451l-1.505-0.353v-2.754c0-0.012-0.006-0.02-0.006-0.031L25.384,54.626z M31.072,68.424h-7.193v-9.623l7.195,1.69
	v7.933H31.072z"/>
<path fill="#00FFCF" d="M71.559,41.936c2.094,0,3.787-2.424,3.787-4.512c0-2.093-1.693-3.787-3.787-3.787
	c-2.088,0-3.785,1.693-3.785,3.787C67.771,39.511,69.471,41.936,71.559,41.936z"/>
<path fill="#00FFCF" d="M78.756,51.471c-0.074,0-0.141,0.034-0.209,0.04l0.124-0.137c0.249-0.276,0.386-0.633,0.386-1.004
	l-0.01-5.436c0-0.015-0.01-0.027-0.01-0.039c-0.004-0.109-0.036-0.212-0.064-0.318c-0.021-0.083-0.027-0.172-0.063-0.25
	c-0.036-0.085-0.102-0.152-0.157-0.229c-0.054-0.082-0.101-0.167-0.17-0.238c-0.06-0.053-0.138-0.088-0.204-0.136
	c-0.096-0.065-0.182-0.134-0.29-0.176c-0.012-0.003-0.019-0.015-0.032-0.02c-0.138-0.047-3.164-1.137-5.94-1.273l-0.356,0.713
	h-0.011l1.008,7.853l-1.2,2.094l-1.191-2.094l1.007-7.853h-0.011l-0.355-0.713c-2.775,0.136-5.808,1.224-5.943,1.273
	c-0.013,0.005-0.021,0.016-0.03,0.02c-0.107,0.04-0.194,0.11-0.287,0.174c-0.068,0.049-0.147,0.086-0.206,0.141
	c-0.071,0.067-0.116,0.155-0.17,0.233c-0.053,0.077-0.121,0.147-0.161,0.236c-0.031,0.076-0.038,0.164-0.06,0.245
	c-0.028,0.107-0.063,0.211-0.067,0.321c0,0.015-0.006,0.027-0.006,0.04V51.2l-1.566,0.78c-0.741,0.371-1.04,1.27-0.669,2.009
	c0.262,0.524,0.789,0.827,1.337,0.827c0.228,0,0.453-0.051,0.671-0.159l2.394-1.196c0.509-0.252,0.827-0.771,0.827-1.341v-6.093
	c0.097-0.03,0.195-0.055,0.303-0.087v9.785l-3.912,0.786c-0.803,0.161-1.395,0.845-1.439,1.662l-0.633,11.65
	c-0.057,0.989,0.704,1.837,1.696,1.892c0.035,0.001,0.063,0.003,0.097,0.003c0.95,0,1.741-0.739,1.795-1.698l0.563-10.261
	l1.535-0.313v10.472c0,0.828,0.67,1.501,1.496,1.501H78.76c0.824,0,1.497-0.672,1.497-1.501V58.105v-1.201v-3.94
	C80.252,52.145,79.58,51.471,78.756,51.471z M75.751,45.943c0.104,0.032,0.206,0.058,0.301,0.089l0.007,3.772l-0.309,0.342
	L75.751,45.943L75.751,45.943z M77.258,68.424h-7.199v-7.933l7.199-1.69V68.424z M77.258,52.971v2.754l-1.507,0.354v-1.451
	l1.515-1.688C77.266,52.951,77.258,52.959,77.258,52.971z"/>
<path fill="#BBFFF2" d="M43.981,54.564h0.335V69.92c0,0.827,0.668,1.499,1.499,1.499h9.511c0.83,0,1.501-0.67,1.501-1.499V54.563
	h0.327C58.146,54.563,42.99,54.564,43.981,54.564z"/>
<path fill="#00FFCF" d="M62.09,36.965v-5.398c0-0.719-0.59-1.306-1.305-1.306h-6.01v-3.138c0-0.941-0.771-1.712-1.715-1.712H40.76
	c-0.94,0-1.712,0.771-1.712,1.712v7.082c0,0.942,0.771,1.711,1.712,1.711h0.841l-2.388,3.616l6.792-3.616H50.1v1.048
	c0,0.72,0.587,1.306,1.308,1.306h5.379l5.176,2.756l-1.818-2.756h0.643C61.5,38.273,62.09,37.685,62.09,36.965z M46.022,34.612
	c-0.769,0-1.392-0.623-1.392-1.392c0-0.77,0.623-1.393,1.392-1.393c0.767,0,1.393,0.623,1.393,1.393
	C47.415,33.989,46.789,34.612,46.022,34.612z M50.568,34.612c-0.769,0-1.392-0.623-1.392-1.392c0-0.77,0.624-1.393,1.392-1.393
	s1.393,0.623,1.393,1.393C51.961,33.989,51.336,34.612,50.568,34.612z M55.115,34.612c-0.77,0-1.393-0.623-1.393-1.392
	c0-0.77,0.623-1.393,1.393-1.393c0.769,0,1.393,0.623,1.393,1.393C56.508,33.989,55.884,34.612,55.115,34.612z"/>
</svg>
