<?xml version="1.0" encoding="utf-8"?>
<!-- Generator: Adobe Illustrator 16.0.3, SVG Export Plug-In . SVG Version: 6.00 Build 0)  -->
<!DOCTYPE svg PUBLIC "-//W3C//DTD SVG 1.1//EN" "http://www.w3.org/Graphics/SVG/1.1/DTD/svg11.dtd">
<svg version="1.1" xmlns="http://www.w3.org/2000/svg" xmlns:xlink="http://www.w3.org/1999/xlink" x="0px" y="0px" width="200px"
	 height="200px" viewBox="0 0 200 200" enable-background="new 0 0 200 200" xml:space="preserve">
<g id="Layer_2">
	<rect fill-rule="evenodd" clip-rule="evenodd" fill="#FFFFFF" width="200" height="200"/>
</g>
<g id="Layer_1">
	<g>
		<g>
			<path fill="#383940" d="M53.703,161.909h-7.641v6.438h8.984v3.547H41.609v-22.75h13.406v3.547h-8.953v5.672h7.641V161.909z"/>
			<path fill="#383940" d="M72.781,163.722c0,1.177-0.151,2.25-0.453,3.219c-0.302,0.969-0.729,1.808-1.281,2.516l3.375,3.703
				l-2.75,2.344l-3.5-3.891c-0.511,0.198-1.044,0.349-1.602,0.453c-0.558,0.104-1.138,0.156-1.742,0.156
				c-2.406,0-4.328-0.75-5.766-2.25s-2.156-3.583-2.156-6.25v-6.375c0-2.656,0.719-4.742,2.156-6.258s3.354-2.273,5.75-2.273
				c2.396,0,4.323,0.758,5.781,2.273c1.458,1.516,2.188,3.602,2.188,6.258V163.722z M68.359,157.299c0-1.63-0.302-2.86-0.906-3.69
				c-0.604-0.831-1.484-1.246-2.641-1.246c-1.167,0-2.042,0.413-2.625,1.238c-0.583,0.825-0.875,2.058-0.875,3.698v6.424
				c0,1.651,0.297,2.889,0.891,3.715c0.594,0.824,1.469,1.237,2.625,1.237c1.146,0,2.021-0.413,2.625-1.237
				c0.604-0.826,0.906-2.063,0.906-3.715V157.299z"/>
			<path fill="#383940" d="M91.938,149.144v15.484c0,2.427-0.711,4.3-2.133,5.617s-3.284,1.977-5.586,1.977
				c-2.302,0-4.164-0.661-5.586-1.984s-2.133-3.192-2.133-5.609v-15.484h4.438v15.484c0,1.386,0.286,2.406,0.859,3.063
				c0.573,0.656,1.38,0.984,2.422,0.984c1.073,0,1.891-0.313,2.453-0.938s0.844-1.661,0.844-3.109v-15.484H91.938z"/>
			<path fill="#383940" d="M99.781,171.894h-4.422v-22.75h4.422V171.894z"/>
			<path fill="#383940" d="M117.734,164.565l0.047,0.094c0.021,2.5-0.573,4.386-1.781,5.656c-1.209,1.271-2.99,1.906-5.344,1.906
				c-2.354,0-4.234-0.722-5.641-2.164s-2.109-3.487-2.109-6.133v-6.797c0-2.636,0.68-4.68,2.039-6.133s3.18-2.18,5.461-2.18
				c2.416,0,4.242,0.646,5.477,1.938s1.872,3.203,1.914,5.734l-0.047,0.094h-4.281c0.063-1.495-0.141-2.572-0.609-3.23
				c-0.469-0.659-1.287-0.988-2.453-0.988c-1,0-1.766,0.392-2.297,1.173c-0.531,0.782-0.797,1.966-0.797,3.551v6.834
				c0,1.606,0.283,2.8,0.852,3.582c0.567,0.782,1.398,1.173,2.492,1.173c1.072,0,1.82-0.31,2.242-0.93s0.606-1.68,0.555-3.18
				H117.734z"/>
			<path fill="#383940" d="M135.797,163.722c0,2.667-0.725,4.75-2.172,6.25c-1.448,1.5-3.375,2.25-5.781,2.25
				s-4.328-0.75-5.766-2.25s-2.156-3.583-2.156-6.25v-6.375c0-2.656,0.719-4.742,2.156-6.258s3.354-2.273,5.75-2.273
				c2.396,0,4.322,0.758,5.781,2.273c1.458,1.516,2.188,3.602,2.188,6.258V163.722z M131.375,157.299c0-1.63-0.303-2.86-0.906-3.69
				c-0.604-0.831-1.484-1.246-2.641-1.246c-1.167,0-2.042,0.413-2.625,1.238c-0.584,0.825-0.875,2.058-0.875,3.698v6.424
				c0,1.651,0.297,2.889,0.891,3.715c0.594,0.824,1.469,1.237,2.625,1.237c1.146,0,2.021-0.413,2.625-1.237
				c0.604-0.826,0.906-2.063,0.906-3.715V157.299z"/>
			<path fill="#383940" d="M144.375,149.144l4.078,16.703h0.094l4.125-16.703h5.797v22.75h-4.422v-6.609l0.375-8.844l-0.094-0.016
				l-4.344,15.469h-2.953l-4.297-15.344l-0.094,0.016l0.391,8.719v6.609h-4.422v-22.75H144.375z"/>
		</g>
		<g>
			<path fill-rule="evenodd" clip-rule="evenodd" fill="#27378A" d="M102.442,19.823c1.507,1.435,3.394,2.298,5.139,3.364
				c14.516,8.862,29.054,17.689,43.58,26.535c0.557,0.34,1.061,0.766,1.589,1.151c-2.876,2.049-6.204,3.167-9.399,4.558
				c-4.021-2.455-8.04-4.913-12.063-7.366c-9.616-5.861-19.234-11.721-28.851-17.581c-0.385-0.497-0.726-0.223-1.128,0.015
				c-8.648,5.092-17.289,10.193-25.96,15.245c-6.369,3.711-12.776,7.353-19.167,11.025c-2.5-1.666-4.49-4.004-7.154-5.456
				c0.113-1.037,1.105-1.114,1.747-1.491c16.145-9.48,32.312-18.924,48.462-28.395c0.806-0.472,1.766-0.753,2.316-1.604
				C101.85,19.823,102.146,19.823,102.442,19.823z"/>
			<path fill-rule="evenodd" clip-rule="evenodd" fill="#22224B" d="M56.183,56.771c6.391-3.674,12.798-7.315,19.167-11.026
				c8.671-5.052,17.312-10.153,25.96-15.245c0.402-0.237,0.743-0.512,1.128-0.015c-0.663,0.58-0.423,1.362-0.43,2.068
				c-0.023,2.864-0.011,5.729-0.013,8.593C90.572,47.651,79.161,54.18,67.708,60.633c-1.25,0.703-1.764,1.412-1.748,2.898
				c0.086,7.916,0.083,15.834,0.01,23.752c-0.018,1.871,0.182,2.319,2.051,1.256c10.722-6.099,21.524-12.054,32.253-18.14
				c1.279-0.726,2.246-0.901,3.361,0.082c0.327,0.288,0.753,0.464,1.131,0.696c7.736,4.758,7.736,4.758,6.602,14.041
				c-2.309-1.31-4.78-2.403-6.878-3.991c-2-1.514-3.522-0.992-5.371,0.071c-11.504,6.616-23.065,13.137-34.558,19.773
				c-2.534,1.465-5.289,2.588-7.51,4.572c-0.539-0.449-0.423-1.074-0.41-1.65c0.259-11.455-0.379-22.899-0.444-34.35
				C56.172,65.353,56.187,61.062,56.183,56.771z"/>
			<path fill-rule="evenodd" clip-rule="evenodd" fill="#27378A" d="M57.051,105.645c2.221-1.984,4.976-3.107,7.51-4.572
				c11.493-6.637,23.053-13.157,34.558-19.773c1.849-1.063,3.371-1.585,5.371-0.071c2.098,1.588,4.569,2.682,6.878,3.991
				c-0.351,0.859-1.238,0.978-1.921,1.347c-10.592,5.735-21.197,11.447-31.797,17.167c-0.645,0.348-1.279,0.715-2.182,1.223
				c1.445,0.848,2.677,1.586,3.923,2.299c6.929,3.965,13.881,7.891,20.773,11.918c1.315,0.77,2.272,0.785,3.612,0.006
				c12.906-7.508,25.871-14.916,38.78-22.421c1.317-0.765,2.345-0.897,3.583-0.005c1.998,1.442,4.576,1.969,6.256,3.926
				c-0.617,0.238-1.277,0.4-1.845,0.725c-10.176,5.844-20.335,11.717-30.511,17.564c-6.008,3.451-12.036,6.873-18.056,10.307
				c-0.347-0.123-0.713-0.209-1.036-0.377c-11.988-6.283-23.978-12.564-35.954-18.871C62.319,108.615,59.697,107.107,57.051,105.645
				z"/>
			<path fill-rule="evenodd" clip-rule="evenodd" fill="#383940" d="M57.051,105.645c2.646,1.463,5.269,2.971,7.943,4.381
				c11.976,6.307,23.966,12.588,35.954,18.871c0.323,0.168,0.689,0.254,1.036,0.375c0.004,3.412,0.006,6.822,0.009,10.234
				c-0.817,0.096-1.369-0.482-2-0.824c-16.638-9.012-33.267-18.039-49.905-27.049c-1.065-0.578-1.894-1.023-1.871-2.584
				c0.286-18.951,0.476-37.904,0.697-56.857c0.003-0.292,0.074-0.584,0.114-0.877c2.665,1.451,4.654,3.789,7.154,5.455
				c0.004,4.292-0.01,8.583,0.014,12.875c0.065,11.45,0.704,22.895,0.444,34.35C56.628,104.57,56.512,105.195,57.051,105.645z"/>
			<path fill-rule="evenodd" clip-rule="evenodd" fill="#22224B" d="M101.993,139.506c-0.003-3.412-0.005-6.822-0.009-10.234
				c6.02-3.432,12.048-6.854,18.056-10.305c10.176-5.848,20.335-11.721,30.511-17.564c0.567-0.324,1.228-0.486,1.845-0.725
				c0.044,2.879,0.063,5.76,0.148,8.639c0.026,0.859-0.31,1.332-1.032,1.75c-16.3,9.434-32.587,18.889-48.882,28.328
				C102.455,139.496,102.207,139.471,101.993,139.506z"/>
			<path fill-rule="evenodd" clip-rule="evenodd" fill="#383940" d="M101.995,41.146c0.002-2.864-0.011-5.729,0.013-8.593
				c0.007-0.706-0.233-1.488,0.43-2.068c9.616,5.86,19.234,11.72,28.851,17.581c4.022,2.453,8.042,4.911,12.063,7.366
				c0.006,3.365,0.011,6.731,0.017,10.098c-9.157-5.378-18.318-10.749-27.47-16.138C111.254,46.658,106.629,43.896,101.995,41.146z"
				/>
			<path fill-rule="evenodd" clip-rule="evenodd" fill="#22224B" d="M143.367,65.529c-0.006-3.366-0.011-6.732-0.017-10.098
				c3.195-1.391,6.523-2.509,9.399-4.558c0.81,3.179,0.156,6.411,0.356,9.611c0.026,0.429-0.213,0.69-0.567,0.847
				C149.463,62.691,146.646,64.618,143.367,65.529z"/>
		</g>
	</g>
</g>
</svg>
