<?xml version="1.0" encoding="utf-8"?>
<!-- Generator: Adobe Illustrator 16.0.3, SVG Export Plug-In . SVG Version: 6.00 Build 0)  -->
<!DOCTYPE svg PUBLIC "-//W3C//DTD SVG 1.1//EN" "http://www.w3.org/Graphics/SVG/1.1/DTD/svg11.dtd">
<svg version="1.1" id="Layer_1" xmlns="http://www.w3.org/2000/svg" xmlns:xlink="http://www.w3.org/1999/xlink" x="0px" y="0px"
	 width="100px" height="100px" viewBox="0 0 100 100" enable-background="new 0 0 100 100" xml:space="preserve">
<linearGradient id="LOGIPRINCIPAL_1_" gradientUnits="userSpaceOnUse" x1="6.5483" y1="36.6455" x2="93.4258" y2="36.6455">
	<stop  offset="0" style="stop-color:#00FFCF"/>
	<stop  offset="0.532" style="stop-color:#00FFCF"/>
	<stop  offset="1" style="stop-color:#00FFCF"/>
</linearGradient>
<path id="LOGIPRINCIPAL" fill="url(#LOGIPRINCIPAL_1_)" d="M83.738,32.349c-1.975-0.95-2.823-2.125-3.305-4.166
	c-2.1-8.921-7.854-14.438-16.658-16.456c-8.203-1.878-15.316,0.515-20.959,6.825c-1.028,1.149-1.665,1.268-3.029,0.435
	c-4.11-2.51-8.466-2.729-12.643-0.217c-4.269,2.567-6.424,6.479-6.175,11.519c0.063,1.275-0.262,1.857-1.531,1.987
	c-0.677,0.069-1.341,0.311-2,0.511C10.106,35.02,5.614,41.889,6.713,49.175c1.183,7.836,7.31,12.998,15.218,13.007
	C31.899,62.191,42,62.186,52,62.186c0-0.018,0-0.031,0-0.047c9,0,19.773-0.013,29.741,0.006c3.348,0.006,6.003-1.102,8.106-3.828
	C96.482,49.711,93.573,37.082,83.738,32.349z M70.079,41.926c0,0-0.329,1.285-1.642,1.282c-0.787-0.002-1.563-0.555-1.521-1.618
	c0.015-0.348,0.163-1.25,1.021-1.642c0,0,0.062,0.014,0.137-0.19c0.063-0.174-1.387-6.27-12.612-4.009
	c0,0-8.116,0.791-12.198,14.554c0,0,1.97,0.712,2.229,2.757c0.225,1.773-1.042,3.31-2.853,3.309c-0.457,0-2.183-0.186-2.597-2.67
	c-0.135-0.814,0.181-1.566,0.595-2.618c0,0-2.563-1.591-4.568-7.697c-0.253-0.771-0.629-0.794-1.204-1.258
	c0,0-0.583-0.182-0.51,0.365c0.073,0.548-0.109,2.187-1.858,2.187c-1.75,0-1.896-1.749-1.896-1.749s-0.182-2.005,1.859-2.005
	c0,0,1.039,0.01,1.421,0.411c0,0,1.021-0.812,2.188-2.671c1.913-3.05,3.499-11.519,15.6-14.507c0,0-11.737,5.57-12.757,17
	c0,0,0.51,0.35,0.874-1.181c0.366-1.531,4.448-13.268,15.311-15.091c0,0,6.778-0.364,10.133,5.176c0,0-14.873-10.279-23.912,13.923
	c0,0-0.073,0.619,0.218,0.874c0,0,5.818-17.917,19.1-15.089c0,0,5.774,0.088,8.566,6.692c0.324,0.764,0.572,1.964,0.52,2.302
	c0,0-0.047,0.983-0.338,1.284C69.387,40.049,70.38,40.979,70.079,41.926z"/>
<g id="LOGOTEXTO">
	<path fill="#00FFCF" d="M15.96,81.266v4.598h-2.505V73.064h4.447c1.277,0,2.285,0.379,3.023,1.134
		c0.738,0.755,1.107,1.743,1.107,2.967c0,1.229-0.371,2.222-1.112,2.974c-0.741,0.752-1.748,1.127-3.019,1.127H15.96z M15.96,79.271
		h1.942c0.533,0,0.94-0.196,1.222-0.59c0.282-0.395,0.422-0.894,0.422-1.498c0-0.61-0.139-1.117-0.417-1.52
		c-0.278-0.402-0.687-0.604-1.226-0.604H15.96V79.271z"/>
	<path fill="#00FFCF" d="M25.9,77.486c0.246-0.416,0.542-0.738,0.888-0.967c0.346-0.229,0.727-0.344,1.143-0.344
		c0.844,0,1.506,0.336,1.986,1.006c0.48,0.672,0.721,1.707,0.721,3.107v5.572h-2.505v-5.598c0-0.785-0.092-1.33-0.277-1.636
		s-0.473-0.458-0.866-0.458c-0.234,0-0.442,0.053-0.624,0.154c-0.182,0.102-0.337,0.244-0.466,0.427v7.108h-2.496V72.15H25.9V77.486
		z"/>
	<path fill="#00FFCF" d="M37.045,84.764c-0.258,0.416-0.57,0.733-0.936,0.954c-0.366,0.22-0.781,0.329-1.244,0.329
		c-0.85,0-1.513-0.32-1.991-0.962c-0.478-0.644-0.716-1.637-0.716-2.983v-5.748h2.496v5.771c0,0.675,0.082,1.164,0.246,1.469
		c0.164,0.307,0.407,0.458,0.729,0.458c0.275,0,0.517-0.051,0.725-0.153c0.208-0.104,0.385-0.254,0.532-0.453v-7.092h2.505v9.51
		h-2.197L37.045,84.764z"/>
	<path fill="#00FFCF" d="M44.023,81.96l0.018,0.097l1.389-5.703h2.672l-3.208,10.941c-0.24,0.686-0.561,1.258-0.962,1.719
		c-0.401,0.459-1.015,0.689-1.841,0.689c-0.205,0-0.387-0.018-0.545-0.053c-0.158-0.035-0.369-0.088-0.633-0.158l0.29-1.863
		c0.1,0.018,0.171,0.03,0.215,0.04c0.044,0.008,0.092,0.013,0.145,0.013c0.363,0,0.637-0.096,0.822-0.285
		c0.185-0.19,0.318-0.44,0.4-0.752l0.22-0.703L40.2,76.354h2.681L44.023,81.96z"/>
	<path fill="#00FFCF" d="M53.779,84.764c-0.258,0.416-0.57,0.733-0.937,0.954c-0.366,0.22-0.78,0.329-1.243,0.329
		c-0.851,0-1.514-0.32-1.992-0.962c-0.478-0.644-0.716-1.637-0.716-2.983v-5.748h2.497v5.771c0,0.675,0.082,1.164,0.245,1.469
		c0.164,0.307,0.407,0.458,0.729,0.458c0.275,0,0.517-0.051,0.726-0.153c0.207-0.104,0.386-0.254,0.531-0.453v-7.092h2.505v9.51
		h-2.197L53.779,84.764z"/>
	<path fill="#FFFFFF" d="M64.704,80.545h-4.343v5.316h-2.504V73.064h7.61v1.996h-5.106v3.488h4.343V80.545z"/>
	<path fill="#FFFFFF" d="M70.962,85.861c-0.069-0.157-0.134-0.33-0.188-0.519c-0.057-0.188-0.099-0.378-0.127-0.571
		c-0.234,0.388-0.521,0.696-0.856,0.929c-0.338,0.229-0.729,0.347-1.174,0.347c-0.785,0-1.414-0.258-1.886-0.773
		c-0.473-0.516-0.707-1.203-0.707-2.064c0-0.932,0.3-1.654,0.9-2.171c0.6-0.517,1.492-0.772,2.676-0.772h0.94V79.49
		c0-0.463-0.083-0.818-0.251-1.067c-0.166-0.249-0.417-0.374-0.751-0.374c-0.281,0-0.492,0.1-0.634,0.299
		c-0.141,0.199-0.211,0.489-0.211,0.87l-2.416-0.009l-0.026-0.053c-0.028-0.826,0.276-1.529,0.919-2.109
		c0.641-0.58,1.486-0.87,2.535-0.87c0.99,0,1.794,0.289,2.412,0.865c0.617,0.578,0.928,1.399,0.928,2.466v3.85
		c0,0.47,0.032,0.906,0.098,1.311c0.064,0.405,0.164,0.803,0.299,1.195h-2.479V85.861z M69.336,84.166
		c0.252,0,0.484-0.066,0.699-0.202c0.213-0.135,0.382-0.308,0.505-0.519v-1.75H69.6c-0.381,0-0.656,0.133-0.826,0.396
		s-0.254,0.598-0.254,1.002c0,0.316,0.072,0.574,0.22,0.773S69.084,84.166,69.336,84.166z"/>
	<path fill="#FFFFFF" d="M78.1,84.052c0.34,0,0.596-0.126,0.769-0.378s0.26-0.615,0.26-1.09h2.269l0.025,0.053
		c0.018,0.996-0.289,1.813-0.919,2.452c-0.63,0.64-1.431,0.958-2.403,0.958c-1.229,0-2.175-0.4-2.834-1.204
		c-0.658-0.803-0.988-1.84-0.988-3.11V80.51c0-1.266,0.328-2.304,0.984-3.115c0.655-0.812,1.596-1.218,2.82-1.218
		c1.031,0,1.852,0.331,2.456,0.993c0.606,0.662,0.901,1.557,0.884,2.682l-0.018,0.043h-2.276c0-0.519-0.087-0.935-0.26-1.25
		c-0.173-0.314-0.435-0.473-0.786-0.473c-0.498,0-0.841,0.211-1.027,0.635c-0.188,0.422-0.281,0.987-0.281,1.698v1.224
		c0,0.729,0.094,1.297,0.281,1.707C77.24,83.848,77.589,84.052,78.1,84.052z"/>
	<path fill="#FFFFFF" d="M85.596,73.988v2.363h1.318v1.812h-1.318v4.772c0,0.387,0.057,0.662,0.168,0.83
		c0.11,0.166,0.264,0.25,0.457,0.25c0.151,0,0.28-0.007,0.387-0.021c0.105-0.015,0.223-0.04,0.352-0.075l0.193,1.898
		c-0.264,0.082-0.516,0.141-0.756,0.176s-0.514,0.053-0.817,0.053c-0.804,0-1.417-0.247-1.843-0.742
		c-0.424-0.494-0.637-1.281-0.637-2.359v-4.781h-1.125v-1.811H83.1v-2.364L85.596,73.988L85.596,73.988z"/>
</g>
</svg>
