<?xml version="1.0" encoding="utf-8"?>
<!-- Generator: Adobe Illustrator 16.0.3, SVG Export Plug-In . SVG Version: 6.00 Build 0)  -->
<!DOCTYPE svg PUBLIC "-//W3C//DTD SVG 1.1//EN" "http://www.w3.org/Graphics/SVG/1.1/DTD/svg11.dtd">
<svg version="1.1" xmlns="http://www.w3.org/2000/svg" xmlns:xlink="http://www.w3.org/1999/xlink" x="0px" y="0px" width="160px"
	 height="50px" viewBox="0 0 160 50" enable-background="new 0 0 160 50" xml:space="preserve">
<g>
	<path fill-rule="evenodd" clip-rule="evenodd" fill="#00FFCF" d="M60.306,21.697c-1.519-0.731-2.171-1.634-2.54-3.203
		c-1.614-6.859-6.039-11.102-12.809-12.652c-6.307-1.445-11.776,0.396-16.115,5.248c-0.791,0.884-1.28,0.975-2.329,0.334
		c-3.16-1.93-6.509-2.098-9.721-0.167c-3.282,1.974-4.939,4.981-4.748,8.856c0.048,0.98-0.202,1.428-1.177,1.527
		c-0.521,0.053-1.031,0.239-1.538,0.394c-5.638,1.717-9.091,6.999-8.246,12.602c0.91,6.024,5.168,9.993,11.25,9.999
		C19.997,44.642,28,44.637,35,44.637c0-0.013,0-0.024,0-0.036c8,0,15.655-0.009,23.318,0.005c2.574,0.005,4.842-0.846,6.459-2.943
		C69.879,35.047,67.868,25.335,60.306,21.697z M49.804,29.061c0,0-0.252,0.988-1.262,0.986c-0.606-0.002-1.201-0.427-1.169-1.245
		c0.012-0.267,0.126-0.96,0.784-1.262c0,0,0.047,0.011,0.105-0.146c0.049-0.134-1.066-4.822-9.697-3.084
		c0,0-6.241,0.608-9.378,11.191c0,0,1.514,0.547,1.714,2.12c0.173,1.364-0.801,2.544-2.193,2.543c-0.351,0-1.678-0.142-1.997-2.053
		c-0.104-0.626,0.14-1.204,0.458-2.013c0,0-1.971-1.223-3.512-5.917c-0.195-0.595-0.484-0.611-0.925-0.968
		c0,0-0.448-0.14-0.392,0.28c0.056,0.421-0.084,1.682-1.429,1.682c-1.346,0-1.458-1.345-1.458-1.345s-0.14-1.541,1.43-1.541
		c0,0,0.798,0.006,1.093,0.314c0,0,0.785-0.623,1.682-2.053c1.471-2.346,2.69-8.857,11.994-11.154c0,0-9.024,4.282-9.809,13.071
		c0,0,0.393,0.27,0.672-0.908c0.282-1.177,3.42-10.202,11.772-11.603c0,0,5.212-0.28,7.791,3.979c0,0-11.435-7.903-18.385,10.707
		c0,0-0.056,0.477,0.168,0.672c0,0,4.473-13.776,14.685-11.603c0,0,4.441,0.068,6.588,5.146c0.249,0.587,0.44,1.51,0.398,1.771
		c0,0-0.036,0.755-0.259,0.986C49.272,27.617,50.035,28.332,49.804,29.061z"/>
	<g>
		<path fill="#00FFCF" d="M79.328,27.66v5.133H76.53V18.504h4.966c1.427,0,2.552,0.421,3.377,1.264
			c0.823,0.844,1.235,1.947,1.235,3.313c0,1.372-0.413,2.479-1.241,3.32c-0.827,0.838-1.951,1.259-3.371,1.259H79.328z
			 M79.328,25.431h2.168c0.597,0,1.051-0.219,1.364-0.658c0.313-0.44,0.471-0.997,0.471-1.672c0-0.681-0.154-1.247-0.466-1.696
			c-0.311-0.45-0.767-0.674-1.369-0.674h-2.168V25.431z"/>
		<path fill="#00FFCF" d="M90.427,23.44c0.274-0.464,0.606-0.825,0.991-1.08c0.386-0.255,0.811-0.383,1.276-0.383
			c0.942,0,1.681,0.375,2.219,1.124c0.536,0.75,0.803,1.905,0.803,3.469v6.223H92.92v-6.25c0-0.877-0.103-1.487-0.31-1.826
			c-0.205-0.342-0.527-0.512-0.966-0.512c-0.264,0-0.495,0.057-0.698,0.173c-0.201,0.114-0.375,0.273-0.52,0.477v7.938H87.64v-15.31
			h2.787V23.44z"/>
		<path fill="#00FFCF" d="M102.871,31.566c-0.288,0.465-0.637,0.819-1.045,1.064c-0.411,0.246-0.872,0.368-1.389,0.368
			c-0.949,0-1.691-0.359-2.224-1.073c-0.534-0.719-0.801-1.828-0.801-3.334v-6.417h2.786v6.445c0,0.755,0.094,1.299,0.275,1.641
			c0.184,0.341,0.455,0.512,0.815,0.512c0.307,0,0.578-0.058,0.81-0.173c0.233-0.115,0.432-0.283,0.594-0.506v-7.918h2.797v10.619
			h-2.452L102.871,31.566z"/>
		<path fill="#00FFCF" d="M110.664,28.435l0.019,0.109l1.55-6.37h2.984l-3.583,12.217c-0.267,0.767-0.626,1.405-1.074,1.919
			s-1.135,0.771-2.056,0.771c-0.229,0-0.432-0.019-0.609-0.059s-0.411-0.099-0.707-0.178l0.325-2.079
			c0.11,0.019,0.192,0.034,0.24,0.044s0.104,0.014,0.16,0.014c0.407,0,0.711-0.105,0.918-0.319c0.206-0.212,0.356-0.491,0.448-0.837
			l0.246-0.786l-3.133-10.707h2.995L110.664,28.435z"/>
		<path fill="#00FFCF" d="M121.556,31.566c-0.287,0.465-0.636,0.819-1.044,1.064c-0.411,0.246-0.872,0.368-1.39,0.368
			c-0.948,0-1.688-0.359-2.223-1.073c-0.534-0.719-0.799-1.828-0.799-3.334v-6.417h2.786v6.445c0,0.755,0.092,1.299,0.275,1.641
			c0.184,0.341,0.454,0.512,0.813,0.512c0.309,0,0.577-0.058,0.811-0.173c0.229-0.115,0.428-0.283,0.593-0.506v-7.918h2.797v10.619
			h-2.453L121.556,31.566z"/>
		<path fill="#FFFFFF" d="M133.754,26.854h-4.849v5.938h-2.797V18.504h8.5v2.227h-5.703v3.896h4.849V26.854z"/>
		<path fill="#FFFFFF" d="M140.742,32.793c-0.079-0.177-0.148-0.37-0.211-0.579c-0.064-0.21-0.11-0.422-0.142-0.639
			c-0.263,0.432-0.582,0.779-0.957,1.035c-0.378,0.258-0.813,0.389-1.31,0.389c-0.878,0-1.581-0.288-2.106-0.864
			c-0.527-0.576-0.791-1.344-0.791-2.305c0-1.041,0.336-1.85,1.008-2.425c0.669-0.575,1.666-0.863,2.988-0.863h1.049v-0.865
			c0-0.517-0.092-0.914-0.279-1.192c-0.186-0.277-0.465-0.418-0.841-0.418c-0.313,0-0.548,0.111-0.704,0.334
			c-0.159,0.222-0.236,0.545-0.236,0.971l-2.698-0.009l-0.031-0.059c-0.031-0.922,0.309-1.708,1.028-2.354
			c0.713-0.648,1.657-0.972,2.83-0.972c1.104,0,2.002,0.322,2.691,0.966c0.692,0.645,1.037,1.563,1.037,2.752v4.299
			c0,0.522,0.037,1.011,0.108,1.462c0.073,0.453,0.184,0.897,0.334,1.336H140.742z M138.926,30.898c0.281,0,0.54-0.076,0.782-0.225
			c0.237-0.15,0.425-0.345,0.563-0.579v-1.954h-1.049c-0.426,0-0.734,0.147-0.924,0.442c-0.189,0.294-0.286,0.666-0.286,1.117
			c0,0.354,0.084,0.643,0.249,0.864C138.423,30.788,138.644,30.898,138.926,30.898z"/>
		<path fill="#FFFFFF" d="M148.71,30.771c0.38,0,0.666-0.141,0.857-0.423c0.194-0.281,0.292-0.688,0.292-1.218h2.531l0.029,0.06
			c0.02,1.112-0.323,2.026-1.025,2.739c-0.705,0.712-1.598,1.069-2.685,1.069c-1.374,0-2.427-0.449-3.165-1.345
			c-0.734-0.896-1.104-2.055-1.104-3.474v-1.364c0-1.414,0.365-2.574,1.099-3.48c0.732-0.906,1.783-1.358,3.151-1.358
			c1.151,0,2.064,0.369,2.742,1.108c0.678,0.739,1.006,1.737,0.986,2.994l-0.021,0.048h-2.54c0-0.578-0.098-1.043-0.292-1.395
			c-0.191-0.353-0.483-0.528-0.876-0.528c-0.557,0-0.938,0.236-1.148,0.707c-0.209,0.472-0.313,1.104-0.313,1.897v1.366
			c0,0.813,0.104,1.449,0.313,1.906C147.753,30.543,148.141,30.771,148.71,30.771z"/>
		<path fill="#FFFFFF" d="M157.081,19.534v2.641h1.473v2.021h-1.473v5.33c0,0.432,0.063,0.74,0.188,0.928
			c0.123,0.185,0.294,0.278,0.509,0.278c0.172,0,0.315-0.007,0.432-0.023c0.119-0.017,0.249-0.044,0.393-0.084l0.217,2.119
			c-0.294,0.092-0.575,0.157-0.843,0.197c-0.269,0.038-0.573,0.059-0.913,0.059c-0.896,0-1.583-0.275-2.057-0.83
			c-0.473-0.551-0.711-1.431-0.711-2.636v-5.337h-1.255v-2.021h1.255v-2.641H157.081z"/>
	</g>
</g>
</svg>
